<svg width="48" height="44" viewBox="0 0 48 44" fill="none" xmlns="http://www.w3.org/2000/svg">
<path d="M25 11L11.4282 24.5718C11.2157 24.7843 11.1094 24.8906 11.0395 25.0212C10.9697 25.1517 10.9402 25.2991 10.8812 25.5938L9.14709 34.2646C9.08057 34.5972 9.0473 34.7635 9.14191 34.8581C9.23652 34.9527 9.40283 34.9194 9.73544 34.8529L18.4062 33.1188L18.4062 33.1188C18.7009 33.0598 18.8483 33.0303 18.9788 32.9605C19.1094 32.8906 19.2157 32.7843 19.4282 32.5718L33 19L25 11Z" fill="#7E869E" fill-opacity="0.25"/>
<path d="M10.1668 33.8332L9.74255 34.2575C9.98384 34.4987 10.2831 34.5002 10.4482 34.4841C10.5965 34.4696 10.7707 34.4259 10.9248 34.3873C10.9346 34.3848 10.9443 34.3824 10.954 34.38L10.8085 33.7979L10.954 34.38L17.6081 32.7164C17.6243 32.7124 17.6404 32.7084 17.6565 32.7044C17.8753 32.65 18.0856 32.5978 18.2771 32.4894C18.4685 32.381 18.6215 32.2275 18.7807 32.0679C18.7924 32.0561 18.8042 32.0444 18.816 32.0326L35.0101 15.8385L35.0369 15.8116C35.3472 15.5014 35.6215 15.2271 35.8128 14.9764C36.0202 14.7046 36.1858 14.391 36.1858 14C36.1858 13.609 36.0202 13.2954 35.8128 13.0236C35.6215 12.7728 35.3472 12.4986 35.0369 12.1883L35.01 12.1615L31.8385 8.98995L31.8116 8.9631C31.5014 8.65278 31.2271 8.37852 30.9764 8.1872C30.7046 7.97981 30.391 7.81421 30 7.81421C29.609 7.81421 29.2954 7.97981 29.0236 8.1872C28.7728 8.37853 28.4986 8.65279 28.1883 8.96312L28.1615 8.98995L11.9739 25.1776L11.9675 25.184L11.9674 25.184C11.9556 25.1958 11.9438 25.2076 11.9321 25.2193C11.7725 25.3785 11.619 25.5315 11.5106 25.7229C11.4022 25.9144 11.35 26.1247 11.2956 26.3435C11.2916 26.3596 11.2876 26.3757 11.2836 26.3919L9.62003 33.046C9.61762 33.0557 9.61518 33.0654 9.61272 33.0752C9.57411 33.2293 9.53044 33.4035 9.51593 33.5518C9.49978 33.7169 9.50127 34.0162 9.74255 34.2574L10.1668 33.8332Z" stroke="#33363F" stroke-width="1.2"/>
<path d="M25 11L33 19" stroke="#33363F" stroke-width="1.2"/>
</svg>
