<svg width="35" height="35" viewBox="0 0 35 35" fill="none" xmlns="http://www.w3.org/2000/svg">
<path d="M5.83337 11.2917C5.83337 9.40604 5.83337 8.46323 6.41916 7.87744C7.00495 7.29166 7.94776 7.29166 9.83337 7.29166H12.9265C13.744 7.29166 14.1528 7.29166 14.5203 7.4439C14.8879 7.59614 15.1769 7.88517 15.7549 8.46323L17.7868 10.4951C18.3649 11.0731 18.6539 11.3622 19.0214 11.5144C19.389 11.6667 19.7977 11.6667 20.6152 11.6667H25.1667C27.0523 11.6667 27.9951 11.6667 28.5809 12.2524C29.1667 12.8382 29.1667 13.781 29.1667 15.6667V23.7083C29.1667 25.5939 29.1667 26.5367 28.5809 27.1225C27.9951 27.7083 27.0523 27.7083 25.1667 27.7083H9.83338C7.94776 27.7083 7.00495 27.7083 6.41916 27.1225C5.83337 26.5367 5.83337 25.5939 5.83337 23.7083V11.2917Z" stroke="black" stroke-width="2"/>
</svg>
