<svg width="1440" height="690" viewBox="0 0 1440 690" fill="none" xmlns="http://www.w3.org/2000/svg">
<rect x="2" y="2" width="1436" height="686" fill="#92D5EB"/>
<path d="M0 426.798L1440 221V690H0V426.798Z" fill="#64CBEB"/>
<path fill-rule="evenodd" clip-rule="evenodd" d="M245.5 147H96C76.67 147 61 131.33 61 112C61 92.67 76.67 77 96 77C98.9073 77 101.732 77.3545 104.433 78.0226C107.326 58.2121 124.387 43 145 43C158.701 43 170.832 49.72 178.277 60.0437C182.211 58.9402 186.366 58.3361 190.662 58.3072C207.29 58.1953 221.899 66.7255 229.971 79.5677C234.662 77.2823 239.931 76 245.5 76C265.106 76 281 91.8939 281 111.5C281 130.604 265.91 146.183 247 146.969V147H245.5Z" fill="white"/>
<path fill-rule="evenodd" clip-rule="evenodd" d="M313.798 363.255H232.932C222.476 363.255 214 354.778 214 344.323C214 333.867 222.476 325.391 232.932 325.391C234.504 325.391 236.032 325.583 237.493 325.944C239.058 315.228 248.286 307 259.436 307C266.847 307 273.409 310.635 277.436 316.219C279.564 315.622 281.811 315.295 284.135 315.28C293.129 315.219 301.032 319.833 305.398 326.78C307.935 325.544 310.785 324.85 313.798 324.85C324.403 324.85 333 333.447 333 344.052C333 354.386 324.838 362.813 314.609 363.238V363.255H313.798Z" fill="white"/>
<path fill-rule="evenodd" clip-rule="evenodd" d="M1271.5 199H1122C1102.67 199 1087 183.33 1087 164C1087 144.67 1102.67 129 1122 129C1124.91 129 1127.73 129.354 1130.43 130.023C1133.33 110.212 1150.39 95 1171 95C1184.7 95 1196.83 101.72 1204.28 112.044C1208.21 110.94 1212.37 110.336 1216.66 110.307C1233.29 110.195 1247.9 118.725 1255.97 131.568C1260.66 129.282 1265.93 128 1271.5 128C1291.11 128 1307 143.894 1307 163.5C1307 182.604 1291.91 198.183 1273 198.969V199H1271.5Z" fill="white"/>
<rect x="2" y="2" width="1436" height="686" stroke="black" stroke-width="4"/>
</svg>
