<svg width="28" height="28" viewBox="0 0 28 28" fill="none" xmlns="http://www.w3.org/2000/svg">
<g clip-path="url(#clip0_126_96)">
<path d="M14 19.8332C15.2833 19.8332 16.3333 18.7832 16.3333 17.4998C16.3333 16.2165 15.2833 15.1665 14 15.1665C12.7166 15.1665 11.6666 16.2165 11.6666 17.4998C11.6666 18.7832 12.7166 19.8332 14 19.8332ZM21 9.33317H19.8333V6.99984C19.8333 3.77984 17.22 1.1665 14 1.1665C10.78 1.1665 8.16663 3.77984 8.16663 6.99984V9.33317H6.99996C5.71663 9.33317 4.66663 10.3832 4.66663 11.6665V23.3332C4.66663 24.6165 5.71663 25.6665 6.99996 25.6665H21C22.2833 25.6665 23.3333 24.6165 23.3333 23.3332V11.6665C23.3333 10.3832 22.2833 9.33317 21 9.33317ZM10.3833 6.99984C10.3833 5.00484 12.005 3.38317 14 3.38317C15.995 3.38317 17.6166 5.00484 17.6166 6.99984V9.33317H10.3833V6.99984ZM21 23.3332H6.99996V11.6665H21V23.3332Z" fill="#504646"/>
</g>
<defs>
<clipPath id="clip0_126_96">
<rect width="28" height="28" fill="white"/>
</clipPath>
</defs>
</svg>
