<svg width="28" height="28" viewBox="0 0 28 28" fill="none" xmlns="http://www.w3.org/2000/svg">
<path d="M16.6702 3.2018L15.6751 3.3013V3.3013L16.6702 3.2018ZM16.3238 1.81529L15.595 2.5L15.595 2.5L16.3238 1.81529ZM17.3408 5.62487L16.8513 6.49687L16.8513 6.49687L17.3408 5.62487ZM17.5598 5.71559L17.8303 4.75286L17.8303 4.75286L17.5598 5.71559ZM19.7473 4.47641L19.1141 3.70246V3.70246L19.7473 4.47641ZM20.9726 3.74092L21.0038 4.74043L20.9726 3.74092ZM21.1343 3.74899L21.0038 4.74043L21.0038 4.74043L21.1343 3.74899ZM22.2804 4.60275L22.9875 3.89564L22.9875 3.89564L22.2804 4.60275ZM23.3972 5.71958L22.6901 6.42669L23.3972 5.71958ZM24.251 6.86563L23.2595 6.99612L23.2595 6.99614L24.251 6.86563ZM24.259 7.02731L25.2585 7.0585V7.05847L24.259 7.02731ZM23.5235 8.25263L22.7496 7.61939L23.5235 8.25263ZM22.2843 10.4402L21.3216 10.7107L21.3216 10.7107L22.2843 10.4402ZM22.3751 10.6592L23.2471 10.1697L23.2471 10.1697L22.3751 10.6592ZM24.7982 11.3298L24.6987 12.3249H24.6987L24.7982 11.3298ZM26.1847 11.6762L25.5 12.405L26.1847 11.6762ZM26.2933 11.7962L25.5 12.405L26.2933 11.7962ZM26.2934 16.2037L25.5 15.595L25.5 15.595L26.2934 16.2037ZM26.1846 16.3239L25.5 15.595L25.5 15.595L26.1846 16.3239ZM24.7983 16.6702L24.6988 15.6751H24.6988L24.7983 16.6702ZM22.3756 17.3405L23.2475 17.8302L23.2475 17.8302L22.3756 17.3405ZM22.2847 17.56L23.2475 17.8302L23.2475 17.8302L22.2847 17.56ZM23.5237 19.747L24.2977 19.1137H24.2977L23.5237 19.747ZM24.2591 20.972L25.2586 20.9406V20.9406L24.2591 20.972ZM24.251 21.134L25.2424 21.2646V21.2646L24.251 21.134ZM21.1344 24.2505L21.0039 23.259L21.0039 23.259L21.1344 24.2505ZM20.9727 24.2585L20.9415 25.258H20.9415L20.9727 24.2585ZM19.7474 23.523L19.1142 24.297L19.7474 23.523ZM17.5599 22.2839L17.8303 23.2466L17.8303 23.2466L17.5599 22.2839ZM17.3408 22.3746L16.8513 21.5026L16.8513 21.5026L17.3408 22.3746ZM16.6702 24.7979L17.6652 24.8974L16.6702 24.7979ZM16.3237 26.1848L17.0524 26.8696L17.0524 26.8696L16.3237 26.1848ZM16.2039 26.2932L16.8128 27.0865L16.8128 27.0865L16.2039 26.2932ZM11.7962 26.2933L11.1874 27.0866L11.1874 27.0866L11.7962 26.2933ZM11.6762 26.1847L12.405 25.5L12.405 25.5L11.6762 26.1847ZM11.3298 24.7982L10.3348 24.8977V24.8977L11.3298 24.7982ZM10.6592 22.3751L11.1487 21.503L11.1486 21.503L10.6592 22.3751ZM10.4402 22.2844L10.7107 21.3216L10.7107 21.3216L10.4402 22.2844ZM8.25259 23.5236L8.88583 24.2975L8.25259 23.5236ZM7.02723 24.2591L6.99607 23.2596H6.99606L7.02723 24.2591ZM6.8656 24.251L6.73513 25.2425H6.73513L6.8656 24.251ZM5.71951 23.3972L6.42662 22.6901L6.42662 22.6901L5.71951 23.3972ZM4.60271 22.2804L5.30982 21.5733H5.30982L4.60271 22.2804ZM3.74893 21.1344L2.75748 21.2648L2.75748 21.2649L3.74893 21.1344ZM3.74086 20.9727L4.74038 21.0039L4.74038 21.0039L3.74086 20.9727ZM4.47638 19.7474L5.25034 20.3806H5.25034L4.47638 19.7474ZM5.71558 17.5598L4.75285 17.8303L4.75285 17.8303L5.71558 17.5598ZM5.62486 17.3408L6.49688 16.8513L6.49687 16.8513L5.62486 17.3408ZM3.20179 16.6702L3.30129 15.6751H3.30129L3.20179 16.6702ZM1.81529 16.3238L1.13058 17.0526L1.13059 17.0527L1.81529 16.3238ZM1.70667 16.2038L0.913332 16.8126L1.70667 16.2038ZM1.70674 11.7961L2.5 12.405H2.5L1.70674 11.7961ZM1.8152 11.6763L2.5 12.405L2.5 12.405L1.8152 11.6763ZM3.20194 11.3298L3.10244 10.3348H3.10244L3.20194 11.3298ZM5.62542 10.659L4.75332 10.1697L4.75332 10.1697L5.62542 10.659ZM5.716 10.4403L6.67867 10.711L6.67867 10.711L5.716 10.4403ZM4.4766 8.25227L3.70264 8.88551L4.4766 8.25227ZM3.74092 7.02656L2.7414 7.05757V7.05757L3.74092 7.02656ZM3.74896 6.86525L4.74043 6.99556L4.74043 6.99556L3.74896 6.86525ZM4.60292 5.71886L5.31002 6.42597L5.31002 6.42597L4.60292 5.71886ZM5.71957 4.60221L5.01246 3.8951H5.01246L5.71957 4.60221ZM6.86565 3.74842L6.99612 4.73987L6.86565 3.74842ZM7.02729 3.74035L7.05846 2.74084H7.05846L7.02729 3.74035ZM8.25275 4.47595L8.90354 3.7167L8.89484 3.70925L8.88598 3.702L8.25275 4.47595ZM8.25275 4.47596L7.60196 5.23521L7.61065 5.24266L7.61951 5.24991L8.25275 4.47596ZM10.4401 5.71515L10.1698 4.75237V4.75237L10.4401 5.71515ZM10.6594 5.62429L10.1698 4.75237L10.1698 4.75237L10.6594 5.62429ZM11.3298 3.20163L12.3249 3.30114L12.3298 3.25151V3.20163H11.3298ZM11.3298 3.20162L10.3348 3.10212L10.3298 3.15175V3.20162H11.3298ZM11.6761 1.81539L10.9472 1.13077L10.9472 1.13078L11.6761 1.81539ZM11.7963 1.70659L12.405 2.5L12.405 2.5L11.7963 1.70659ZM16.2038 1.70667L15.595 2.5L15.595 2.5L16.2038 1.70667ZM17.6652 3.1023C17.6296 2.74608 17.5959 2.39396 17.5328 2.10393C17.4648 1.79141 17.3414 1.43791 17.0526 1.13059L15.595 2.5C15.5387 2.44009 15.5505 2.40015 15.5786 2.52917C15.6115 2.6807 15.6348 2.89813 15.6751 3.3013L17.6652 3.1023ZM17.8303 4.75286C17.9804 4.83713 17.9377 4.94742 17.8628 4.63008C17.7888 4.31708 17.7405 3.85493 17.6652 3.1023L15.6751 3.3013C15.7444 3.99424 15.8045 4.61626 15.9163 5.08972C16.0271 5.55884 16.2474 6.15789 16.8513 6.49687L17.8303 4.75286ZM17.8303 4.75286L17.8303 4.75286L16.8513 6.49687C16.9896 6.57451 17.1366 6.63542 17.2893 6.67832L17.8303 4.75286ZM19.1141 3.70246C18.5287 4.18143 18.1677 4.47402 17.8941 4.64307C17.6167 4.81448 17.6645 4.7063 17.8303 4.75286L17.2893 6.67832C17.956 6.86562 18.5354 6.59783 18.9455 6.34445C19.3593 6.08872 19.8416 5.69135 20.3806 5.25037L19.1141 3.70246ZM20.9414 2.74141C20.52 2.75456 20.1827 2.91723 19.9137 3.09013C19.6639 3.25058 19.3912 3.47576 19.1141 3.70246L20.3806 5.25037C20.6942 4.9938 20.8644 4.85653 20.9948 4.7727C21.1059 4.70132 21.086 4.73787 21.0038 4.74043L20.9414 2.74141ZM21.2648 2.75754C21.1576 2.74343 21.0495 2.73804 20.9414 2.74141L21.0038 4.74043L21.0038 4.74043L21.2648 2.75754ZM22.9875 3.89564C22.7343 3.64251 22.4853 3.3913 22.2528 3.2068C22.0023 3.00798 21.6829 2.81257 21.2648 2.75754L21.0038 4.74043C20.9223 4.72971 20.9061 4.69135 21.0096 4.77343C21.131 4.86982 21.2867 5.02335 21.5733 5.30986L22.9875 3.89564ZM24.1043 5.01248L22.9875 3.89564L21.5733 5.30986L22.6901 6.42669L24.1043 5.01248ZM25.2424 6.73515C25.1874 6.31707 24.992 5.99768 24.7932 5.74714C24.6087 5.51464 24.3574 5.26562 24.1043 5.01248L22.6901 6.42669C22.9766 6.7132 23.1301 6.86892 23.2265 6.99038C23.3086 7.09382 23.2702 7.07763 23.2595 6.99612L25.2424 6.73515ZM25.2585 7.05847C25.2619 6.95047 25.2565 6.84233 25.2424 6.73513L23.2595 6.99614L23.2595 6.99615L25.2585 7.05847ZM24.2975 8.88586C24.5242 8.60879 24.7494 8.33601 24.9098 8.0863C25.0827 7.81722 25.2454 7.47998 25.2585 7.0585L23.2595 6.99612C23.2621 6.91395 23.2986 6.89403 23.2273 7.00512C23.1434 7.13557 23.0062 7.30579 22.7496 7.61939L24.2975 8.88586ZM23.2471 10.1697C23.2936 10.3355 23.1854 10.3833 23.3569 10.1059C23.5259 9.83228 23.8185 9.47128 24.2975 8.88586L22.7496 7.61939C22.3086 8.15837 21.9112 8.64068 21.6555 9.05454C21.4021 9.46459 21.1343 10.044 21.3216 10.7107L23.2471 10.1697ZM23.2471 10.1697L23.2471 10.1697L21.3216 10.7107C21.3645 10.8634 21.4254 11.0104 21.503 11.1487L23.2471 10.1697ZM24.8977 10.3348C24.145 10.2595 23.6829 10.2111 23.3699 10.1372C23.0525 10.0623 23.1628 10.0196 23.2471 10.1697L21.503 11.1487C21.842 11.7526 22.4411 11.9729 22.9102 12.0837C23.3837 12.1955 24.0057 12.2556 24.6987 12.3249L24.8977 10.3348ZM26.8694 10.9474C26.5621 10.6586 26.2086 10.5352 25.8961 10.4672C25.606 10.4041 25.2539 10.3704 24.8977 10.3348L24.6987 12.3249C25.1019 12.3652 25.3193 12.3885 25.4708 12.4214C25.5999 12.4495 25.5599 12.4613 25.5 12.405L26.8694 10.9474ZM27.0866 11.1874C27.0208 11.1016 26.9482 11.0214 26.8694 10.9474L25.5 12.405L27.0866 11.1874ZM27.5 13.2103C27.5 12.8523 27.5015 12.4986 27.4676 12.2037C27.431 11.8859 27.3434 11.5219 27.0866 11.1874L25.5 12.405C25.45 12.3398 25.4656 12.3012 25.4807 12.4324C25.4985 12.5864 25.5 12.8051 25.5 13.2103H27.5ZM27.5 14.7899V13.2103H25.5V14.7899H27.5ZM27.0868 16.8124C27.3434 16.4779 27.4311 16.1139 27.4676 15.7963C27.5015 15.5014 27.5 15.1478 27.5 14.7899H25.5C25.5 15.195 25.4985 15.4136 25.4807 15.5676C25.4656 15.6988 25.45 15.6602 25.5 15.595L27.0868 16.8124ZM26.8692 17.0528C26.9482 16.9787 27.0209 16.8983 27.0868 16.8124L25.5 15.595L25.5 15.595L26.8692 17.0528ZM24.8978 17.6652C25.254 17.6296 25.606 17.5959 25.896 17.5328C26.2085 17.4649 26.5619 17.3414 26.8693 17.0528L25.5 15.595C25.5599 15.5387 25.5998 15.5505 25.4708 15.5786C25.3193 15.6115 25.1019 15.6348 24.6988 15.6751L24.8978 17.6652ZM23.2475 17.8302C23.1632 17.9803 23.053 17.9376 23.3703 17.8627C23.6833 17.7888 24.1453 17.7405 24.8978 17.6652L24.6988 15.6751C24.006 15.7444 23.3841 15.8045 22.9107 15.9162C22.4417 16.027 21.8428 16.2472 21.5038 16.8508L23.2475 17.8302ZM23.2475 17.8302L23.2475 17.8302L21.5038 16.8508C21.4259 16.9894 21.3649 17.1367 21.322 17.2898L23.2475 17.8302ZM24.2977 19.1137C23.8188 18.5285 23.5263 18.1676 23.3573 17.8941C23.1859 17.6168 23.2941 17.6645 23.2475 17.8302L21.322 17.2897C21.1349 17.9563 21.4026 18.5355 21.6559 18.9455C21.9116 19.3592 22.3089 19.8414 22.7498 20.3802L24.2977 19.1137ZM25.2586 20.9406C25.2454 20.5192 25.0827 20.1821 24.9099 19.9131C24.7494 19.6635 24.5243 19.3907 24.2977 19.1137L22.7498 20.3802C23.0063 20.6937 23.1435 20.8639 23.2273 20.9943C23.2987 21.1054 23.2622 21.0855 23.2596 21.0033L25.2586 20.9406ZM25.2424 21.2646C25.2566 21.1572 25.262 21.0489 25.2586 20.9406L23.2596 21.0033L23.2596 21.0033L25.2424 21.2646ZM24.1045 22.9868C24.3576 22.7337 24.6087 22.4848 24.7932 22.2523C24.992 22.0019 25.1874 21.6826 25.2424 21.2646L23.2596 21.0033C23.2703 20.9218 23.3087 20.9057 23.2266 21.0091C23.1302 21.1305 22.9767 21.2862 22.6903 21.5726L24.1045 22.9868ZM24.1045 22.9868L24.1045 22.9868L22.6903 21.5726L22.6903 21.5726L24.1045 22.9868ZM22.9875 24.1038L24.1045 22.9868L22.6903 21.5726L21.5733 22.6896L22.9875 24.1038ZM21.2649 25.2419C21.683 25.1869 22.0023 24.9915 22.2529 24.7926C22.4854 24.6081 22.7344 24.3569 22.9875 24.1038L21.5733 22.6896C21.2868 22.9761 21.1311 23.1296 21.0096 23.226C20.9062 23.3081 20.9224 23.2697 21.0039 23.259L21.2649 25.2419ZM20.9415 25.258C21.0496 25.2614 21.1577 25.256 21.2649 25.2419L21.0039 23.259L21.0039 23.259L20.9415 25.258ZM19.1142 24.297C19.3912 24.5237 19.664 24.7489 19.9137 24.9093C20.1828 25.0822 20.52 25.2449 20.9415 25.258L21.0039 23.259C21.0861 23.2616 21.106 23.2981 20.9949 23.2267C20.8644 23.1429 20.6942 23.0057 20.3806 22.7491L19.1142 24.297ZM17.8303 23.2466C17.6646 23.2931 17.6168 23.185 17.8942 23.3564C18.1678 23.5254 18.5288 23.818 19.1142 24.297L20.3806 22.7491C19.8417 22.3081 19.3594 21.9107 18.9455 21.655C18.5355 21.4016 17.9561 21.1338 17.2894 21.3211L17.8303 23.2466ZM17.8303 23.2466H17.8303L17.2894 21.3211C17.1367 21.364 16.9896 21.4249 16.8513 21.5026L17.8303 23.2466ZM17.6652 24.8974C17.7405 24.1447 17.7889 23.6825 17.8628 23.3694C17.9378 23.052 17.9805 23.1623 17.8303 23.2466L16.8513 21.5026C16.2474 21.8416 16.0271 22.4407 15.9163 22.9098C15.8045 23.3833 15.7445 24.0054 15.6752 24.6984L17.6652 24.8974ZM17.0524 26.8696C17.3413 26.5623 17.4648 26.2087 17.5328 25.8961C17.5959 25.606 17.6296 25.2537 17.6652 24.8974L15.6752 24.6984C15.6348 25.1017 15.6115 25.3192 15.5786 25.4708C15.5505 25.5999 15.5387 25.5599 15.595 25.5L17.0524 26.8696ZM16.8128 27.0865C16.8984 27.0208 16.9785 26.9483 17.0524 26.8696L15.595 25.5L15.595 25.5L16.8128 27.0865ZM14.7895 27.5C15.1476 27.5 15.5014 27.5015 15.7963 27.4676C16.1142 27.431 16.4783 27.3433 16.8128 27.0865L15.595 25.5C15.6602 25.4499 15.6988 25.4656 15.5676 25.4807C15.4135 25.4985 15.1948 25.5 14.7895 25.5V27.5ZM13.2103 27.5H14.7895V25.5H13.2103V27.5ZM11.1874 27.0866C11.5219 27.3434 11.886 27.431 12.2037 27.4676C12.4986 27.5015 12.8523 27.5 13.2103 27.5V25.5C12.8051 25.5 12.5864 25.4985 12.4324 25.4807C12.3012 25.4656 12.3398 25.45 12.405 25.5L11.1874 27.0866ZM10.9474 26.8694C11.0214 26.9482 11.1016 27.0208 11.1874 27.0866L12.405 25.5H12.405L10.9474 26.8694ZM10.3348 24.8977C10.3704 25.2539 10.4041 25.606 10.4672 25.8961C10.5352 26.2086 10.6586 26.5621 10.9474 26.8694L12.405 25.5C12.4613 25.5599 12.4495 25.5999 12.4214 25.4708C12.3885 25.3193 12.3652 25.1019 12.3249 24.6987L10.3348 24.8977ZM10.1697 23.2471C10.0196 23.1628 10.0623 23.0525 10.1372 23.3699C10.2111 23.6829 10.2595 24.145 10.3348 24.8977L12.3249 24.6987C12.2556 24.0057 12.1955 23.3837 12.0837 22.9102C11.9729 22.4411 11.7526 21.842 11.1487 21.503L10.1697 23.2471ZM10.1697 23.2471L10.1697 23.2471L11.1486 21.503C11.0104 21.4254 10.8634 21.3645 10.7107 21.3216L10.1697 23.2471ZM8.88583 24.2975C9.47126 23.8185 9.83227 23.5259 10.1059 23.3569C10.3833 23.1855 10.3355 23.2936 10.1697 23.2471L10.7107 21.3216C10.044 21.1343 9.4646 21.4021 9.05454 21.6555C8.64067 21.9112 8.15835 22.3086 7.61936 22.7496L8.88583 24.2975ZM7.0584 25.2586C7.47989 25.2455 7.81715 25.0828 8.08624 24.9099C8.33595 24.7494 8.60875 24.5242 8.88583 24.2975L7.61936 22.7496C7.30575 23.0062 7.13552 23.1435 7.00506 23.2273C6.89397 23.2987 6.9139 23.2621 6.99607 23.2596L7.0584 25.2586ZM6.73513 25.2425C6.84229 25.2566 6.9504 25.262 7.0584 25.2586L6.99606 23.2596H6.99606L6.73513 25.2425ZM5.0124 24.1043C5.26555 24.3575 5.51458 24.6087 5.74709 24.7932C5.99764 24.992 6.31704 25.1875 6.73513 25.2425L6.99607 23.2596C7.07757 23.2703 7.09376 23.3087 6.99033 23.2266C6.86886 23.1302 6.71314 22.9767 6.42662 22.6901L5.0124 24.1043ZM3.8956 22.9875L5.0124 24.1043L6.42662 22.6901L5.30982 21.5733L3.8956 22.9875ZM2.75748 21.2649C2.8125 21.6829 3.00792 22.0023 3.20674 22.2529C3.39125 22.4854 3.64246 22.7344 3.8956 22.9875L5.30982 21.5733C5.0233 21.2868 4.86977 21.1311 4.77338 21.0096C4.69129 20.9062 4.72965 20.9224 4.74038 21.0039L2.75748 21.2649ZM2.74135 20.9415C2.73798 21.0496 2.74337 21.1577 2.75748 21.2648L4.74038 21.0039H4.74038L2.74135 20.9415ZM3.70242 19.1141C3.47572 19.3912 3.25053 19.664 3.09007 19.9137C2.91717 20.1828 2.7545 20.52 2.74135 20.9415L4.74038 21.0039C4.73781 21.0861 4.70126 21.106 4.77264 20.9949C4.85647 20.8644 4.99375 20.6942 5.25034 20.3806L3.70242 19.1141ZM4.75285 17.8303C4.70629 17.6645 4.81447 17.6167 4.64306 17.8941C4.474 18.1677 4.1814 18.5287 3.70242 19.1141L5.25034 20.3806C5.69133 19.8416 6.0887 19.3593 6.34444 18.9455C6.59782 18.5354 6.86562 17.956 6.6783 17.2893L4.75285 17.8303ZM4.75285 17.8303L4.75285 17.8303L6.6783 17.2893C6.63541 17.1366 6.5745 16.9896 6.49688 16.8513L4.75285 17.8303ZM3.10229 17.6652C3.85492 17.7405 4.31707 17.7888 4.63007 17.8628C4.94742 17.9377 4.83712 17.9804 4.75285 17.8303L6.49687 16.8513C6.15789 16.2474 5.55884 16.0271 5.08972 15.9163C4.61625 15.8045 3.99423 15.7444 3.30129 15.6751L3.10229 17.6652ZM1.13059 17.0527C1.43792 17.3414 1.79141 17.4648 2.10393 17.5328C2.39396 17.5959 2.74607 17.6296 3.10229 17.6652L3.30129 15.6751C2.89812 15.6348 2.68069 15.6115 2.52917 15.5786C2.40015 15.5505 2.44009 15.5387 2.5 15.595L1.13059 17.0527ZM0.913332 16.8126C0.979147 16.8984 1.0518 16.9786 1.13058 17.0526L2.50001 15.595L2.5 15.595L0.913332 16.8126ZM0.5 14.7897C0.5 15.1477 0.498455 15.5014 0.532391 15.7963C0.56896 16.114 0.65662 16.4781 0.913332 16.8126L2.5 15.595C2.55005 15.6602 2.53437 15.6988 2.51928 15.5676C2.50155 15.4136 2.5 15.1949 2.5 14.7897H0.5ZM0.5 13.2104V14.7897H2.5V13.2104H0.5ZM0.913486 11.1872C0.65668 11.5218 0.568986 11.8859 0.532403 12.2037C0.498454 12.4986 0.5 12.8524 0.5 13.2104H2.5C2.5 12.8052 2.50155 12.5865 2.51928 12.4324C2.53439 12.3012 2.55006 12.3398 2.5 12.405L0.913486 11.1872ZM1.13041 10.9475C1.05175 11.0214 0.979206 11.1016 0.913485 11.1872L2.5 12.405L2.5 12.405L1.13041 10.9475ZM3.10244 10.3348C2.74616 10.3704 2.39397 10.4041 2.10389 10.4672C1.79131 10.5352 1.43776 10.6587 1.13041 10.9475L2.5 12.405C2.44008 12.4613 2.40013 12.4495 2.52918 12.4214C2.68073 12.3885 2.89819 12.3652 3.30145 12.3248L3.10244 10.3348ZM4.75332 10.1697C4.83757 10.0195 4.94792 10.0622 4.63052 10.1372C4.31747 10.2111 3.85522 10.2595 3.10244 10.3348L3.30145 12.3248C3.99452 12.2555 4.61667 12.1955 5.09022 12.0836C5.55943 11.9728 6.15858 11.7524 6.49752 11.1483L4.75332 10.1697ZM4.75332 10.1697H4.75332L6.49752 11.1483C6.57501 11.0102 6.63581 10.8634 6.67867 10.711L4.75332 10.1697ZM3.70264 8.88551C4.18173 9.47107 4.4744 9.83216 4.6435 10.1058C4.81494 10.3833 4.70672 10.3354 4.75332 10.1697L6.67867 10.711C6.86615 10.0442 6.59832 9.46464 6.34489 9.05451C6.08911 8.64056 5.69165 8.15815 5.25055 7.61904L3.70264 8.88551ZM2.7414 7.05757C2.75448 7.47918 2.91717 7.81654 3.09012 8.08569C3.25061 8.33548 3.47587 8.60835 3.70264 8.88551L5.25055 7.61904C4.99389 7.30534 4.85657 7.13506 4.77272 7.00455C4.70131 6.89343 4.73788 6.91336 4.74043 6.99556L2.7414 7.05757ZM2.75749 6.73494C2.74343 6.84187 2.73805 6.94977 2.7414 7.05757L4.74043 6.99556V6.99556L2.75749 6.73494ZM3.89581 5.01175C3.6426 5.26497 3.39132 5.51406 3.20677 5.74663C3.0079 5.99724 2.81245 6.31673 2.75749 6.73494L4.74043 6.99556C4.72972 7.07708 4.69135 7.09328 4.77344 6.98982C4.86986 6.86832 5.02343 6.71256 5.31002 6.42597L3.89581 5.01175ZM5.01246 3.8951L3.89581 5.01175L5.31002 6.42597L6.42667 5.30932L5.01246 3.8951ZM5.01246 3.8951L5.01246 3.8951L6.42667 5.30932L6.42668 5.30931L5.01246 3.8951ZM6.73519 2.75696C6.31709 2.81198 5.99769 3.0074 5.74715 3.20623C5.51464 3.39074 5.26561 3.64195 5.01246 3.8951L6.42668 5.30931C6.7132 5.0228 6.86891 4.86926 6.99039 4.77287C7.09382 4.69078 7.07763 4.72914 6.99612 4.73987L6.73519 2.75696ZM7.05846 2.74084C6.95044 2.73747 6.84233 2.74286 6.73519 2.75696L6.99612 4.73987H6.99613L7.05846 2.74084ZM8.88598 3.702C8.60887 3.47526 8.33605 3.25006 8.08633 3.08959C7.81724 2.91668 7.47997 2.75398 7.05846 2.74084L6.99612 4.73987C6.91393 4.73731 6.89401 4.70074 7.00513 4.77215C7.13561 4.85599 7.30587 4.9933 7.61951 5.24991L8.88598 3.702ZM8.90354 3.7167L8.90354 3.7167L7.60195 5.23521L7.60196 5.23521L8.90354 3.7167ZM10.1698 4.75237C10.3355 4.70584 10.3833 4.814 10.1059 4.64257C9.83232 4.47351 9.47134 4.18093 8.88599 3.702L7.61951 5.24991C8.15845 5.69086 8.6407 6.08819 9.05449 6.34391C9.46445 6.59726 10.0437 6.86508 10.7104 6.67792L10.1698 4.75237ZM10.1698 4.75237L10.1698 4.75237L10.7104 6.67792C10.8633 6.63499 11.0106 6.57398 11.1491 6.4962L10.1698 4.75237ZM10.3348 3.10213C10.2596 3.85461 10.2112 4.31667 10.1373 4.62961C10.0624 4.9469 10.0197 4.83665 10.1698 4.75237L11.1491 6.4962C11.7528 6.15718 11.973 5.55824 12.0838 5.08921C12.1956 4.61583 12.2556 3.99393 12.3249 3.30114L10.3348 3.10213ZM10.3298 3.20162V3.20163H12.3298V3.20162H10.3298ZM10.9472 1.13078C10.6585 1.43808 10.5351 1.7915 10.4672 2.10396C10.4041 2.39394 10.3704 2.74598 10.3348 3.10212L12.3249 3.30113C12.3652 2.89804 12.3885 2.68066 12.4214 2.52917C12.4495 2.40017 12.4613 2.44009 12.405 2.5L10.9472 1.13078ZM11.1876 0.913175C11.1017 0.979084 11.0213 1.05186 10.9472 1.13077L12.405 2.5L12.405 2.5L11.1876 0.913175ZM13.2101 0.5C12.8522 0.5 12.4986 0.498455 12.2037 0.532379C11.8861 0.568934 11.5221 0.656558 11.1876 0.913176L12.405 2.5C12.3398 2.55003 12.3012 2.53436 12.4324 2.51927C12.5864 2.50154 12.805 2.5 13.2101 2.5V0.5ZM14.7897 0.5H13.2101V2.5H14.7897V0.5ZM16.8126 0.913336C16.4781 0.656621 16.114 0.568961 15.7963 0.532391C15.5014 0.498455 15.1477 0.5 14.7897 0.5V2.5C15.1949 2.5 15.4136 2.50155 15.5676 2.51928C15.6988 2.53437 15.6602 2.55005 15.595 2.5L16.8126 0.913336ZM17.0527 1.13059C16.9786 1.0518 16.8983 0.979146 16.8126 0.913333L15.595 2.5L15.595 2.5L17.0527 1.13059ZM18 14C18 16.2091 16.2091 18 14 18V20C17.3137 20 20 17.3137 20 14H18ZM14 10C16.2091 10 18 11.7909 18 14H20C20 10.6863 17.3137 8 14 8V10ZM10 14C10 11.7909 11.7909 10 14 10V8C10.6863 8 8 10.6863 8 14H10ZM14 18C11.7909 18 10 16.2091 10 14H8C8 17.3137 10.6863 20 14 20V18Z" fill="black"/>
</svg>
