<svg width="47" height="44" viewBox="0 0 47 44" fill="none" xmlns="http://www.w3.org/2000/svg">
<path d="M9.03845 14.9829H13.7462C16.5614 14.9829 17.9689 14.9829 19.0225 15.7516C20.076 16.5203 20.5055 17.8607 21.3646 20.5416L22.3213 23.5268C23.1803 26.2077 23.6099 27.5481 24.6634 28.3168C25.7169 29.0855 27.1245 29.0855 29.9396 29.0855H36.1538M36.1538 29.0855L31.6346 24.8547M36.1538 29.0855L31.6346 33.3162" stroke="black" stroke-width="2"/>
<path fill-rule="evenodd" clip-rule="evenodd" d="M36.8373 14.253L32.318 10.0222L30.9512 11.4823L33.6224 13.983H29.9396L29.8802 13.983C28.5232 13.983 27.4194 13.983 26.5267 14.0856C25.5952 14.1928 24.7913 14.4205 24.074 14.9439C23.4528 15.3971 23.0229 15.9799 22.668 16.6829C23.0167 17.5103 23.3362 18.5017 23.6827 19.5832C23.9204 18.8654 24.1224 18.3021 24.3306 17.8416C24.6373 17.1634 24.9166 16.8049 25.2528 16.5595C25.5891 16.3142 26.0157 16.1576 26.7552 16.0725C27.5204 15.9845 28.5088 15.983 29.9396 15.983H33.6224L30.9512 18.4838L32.318 19.9438L36.8373 15.713L37.6171 14.983L36.8373 14.253ZM21.0179 27.3857C20.6692 26.5583 20.3497 25.5669 20.0032 24.4854C19.7655 25.2032 19.5634 25.7665 19.3553 26.227C19.0486 26.9052 18.7693 27.2637 18.433 27.509C18.0968 27.7544 17.6702 27.911 16.9307 27.996C16.1655 28.084 15.177 28.0856 13.7462 28.0856H9.03845V30.0856H13.7462H13.8056H13.8056C15.1627 30.0856 16.2664 30.0856 17.1592 29.9829C18.0907 29.8758 18.8946 29.6481 19.6119 29.1247C20.2331 28.6715 20.663 28.0887 21.0179 27.3857Z" fill="black"/>
</svg>
