<svg width="40" height="40" viewBox="0 0 40 40" fill="none" xmlns="http://www.w3.org/2000/svg">
<path d="M5.26413 23.2177C4.07578 21.2371 4.07578 18.7629 5.26413 16.7823V16.7823C5.62676 16.1779 6.22752 15.7545 6.91866 15.6163L9.74037 15.052C9.90848 15.0183 10.06 14.9282 10.1698 14.7965L15.5043 8.39498C16.6869 6.97592 17.2782 6.26638 17.8058 6.45742C18.3335 6.64846 18.3335 7.57207 18.3335 9.41928L18.3335 30.5807C18.3335 32.4279 18.3335 33.3515 17.8058 33.5426C17.2782 33.7336 16.6869 33.0241 15.5043 31.605L10.1698 25.2035C10.06 25.0718 9.90848 24.9817 9.74037 24.948L6.91866 24.3837C6.22752 24.2455 5.62676 23.8221 5.26413 23.2177V23.2177Z" stroke="#222222" stroke-width="2"/>
<path d="M25.8924 14.1075C27.4472 15.6623 28.3244 17.7685 28.3331 19.9673C28.3418 22.166 27.4811 24.2791 25.9386 25.846" stroke="#222222" stroke-width="2" stroke-linecap="round"/>
<path d="M32.7614 10.572C35.249 13.0596 36.6527 16.4296 36.6666 19.9476C36.6804 23.4656 35.3034 26.8465 32.8354 29.3536" stroke="#222222" stroke-width="2" stroke-linecap="round"/>
</svg>
