<svg width="32" height="30" viewBox="0 0 32 30" fill="none" xmlns="http://www.w3.org/2000/svg">
<path d="M12.9063 6.04596C14.2173 2.77763 14.8728 1.14346 16 1.14346C17.1272 1.14346 17.7827 2.77763 19.0937 6.04596L19.1548 6.19815C19.8954 8.0446 20.2657 8.96782 21.0205 9.52897C21.7752 10.0901 22.766 10.1788 24.7475 10.3563L25.1058 10.3884C28.3488 10.6788 29.9703 10.8241 30.3173 11.8557C30.6642 12.8873 29.46 13.9829 27.0516 16.174L26.2478 16.9053C25.0286 18.0145 24.419 18.5691 24.1349 19.296C24.0819 19.4316 24.0379 19.5705 24.003 19.7119C23.8163 20.4696 23.9948 21.2742 24.3518 22.8833L24.4629 23.3842C25.119 26.3414 25.4471 27.82 24.8743 28.4578C24.6603 28.6961 24.3821 28.8677 24.0731 28.952C23.246 29.1777 22.0719 28.2209 19.7237 26.3075C18.1817 25.051 17.4107 24.4227 16.5256 24.2814C16.1774 24.2258 15.8226 24.2258 15.4744 24.2814C14.5892 24.4227 13.8183 25.051 12.2763 26.3075C9.92806 28.2209 8.75394 29.1777 7.92693 28.952C7.61791 28.8677 7.33972 28.6961 7.12568 28.4578C6.55288 27.82 6.88095 26.3414 7.53707 23.3842L7.6482 22.8833C8.00521 21.2742 8.18372 20.4696 7.99696 19.7119C7.96212 19.5705 7.91806 19.4316 7.86506 19.296C7.58094 18.5691 6.97135 18.0145 5.75217 16.9053L4.94837 16.174C2.53996 13.9829 1.33576 12.8873 1.68272 11.8557C2.02969 10.8241 3.6512 10.6788 6.89422 10.3884L7.25245 10.3563C9.23398 10.1788 10.2247 10.0901 10.9795 9.52897C11.7342 8.96782 12.1046 8.0446 12.8452 6.19815L12.9063 6.04596Z" fill="#96E6B3" stroke="#33363F" stroke-width="2"/>
</svg>
